<?xml version="1.0" encoding="UTF-8" standalone="no"?>
<!-- Created with Inkscape (http://www.inkscape.org/) -->

<svg
   xmlns:dc="http://purl.org/dc/elements/1.1/"
   xmlns:cc="http://creativecommons.org/ns#"
   xmlns:rdf="http://www.w3.org/1999/02/22-rdf-syntax-ns#"
   xmlns:svg="http://www.w3.org/2000/svg"
   xmlns="http://www.w3.org/2000/svg"
   xmlns:sodipodi="http://sodipodi.sourceforge.net/DTD/sodipodi-0.dtd"
   xmlns:inkscape="http://www.inkscape.org/namespaces/inkscape"
   width="415.52774mm"
   height="298.25366mm"
   viewBox="0 0 1472.3424 1056.8043"
   id="svg2"
   version="1.1"
   inkscape:version="0.91 r13725"
   sodipodi:docname="socket-plug.svg">
  <defs
     id="defs4" />
  <sodipodi:namedview
     id="base"
     pagecolor="#ffffff"
     bordercolor="#666666"
     borderopacity="1.0"
     inkscape:pageopacity="0.0"
     inkscape:pageshadow="2"
     inkscape:zoom="0.49497475"
     inkscape:cx="452.36"
     inkscape:cy="504.9604"
     inkscape:document-units="px"
     inkscape:current-layer="layer1"
     showgrid="false"
     fit-margin-top="0"
     fit-margin-left="0"
     fit-margin-right="0"
     fit-margin-bottom="0"
     inkscape:showpageshadow="false"
     showborder="false"
     inkscape:window-width="2560"
     inkscape:window-height="1410"
     inkscape:window-x="0"
     inkscape:window-y="30"
     inkscape:window-maximized="1" />
  <metadata
     id="metadata7">
    <rdf:RDF>
      <cc:Work
         rdf:about="">
        <dc:format>image/svg+xml</dc:format>
        <dc:type
           rdf:resource="http://purl.org/dc/dcmitype/StillImage" />
        <dc:title></dc:title>
      </cc:Work>
    </rdf:RDF>
  </metadata>
  <g
     inkscape:label="Layer 1"
     inkscape:groupmode="layer"
     id="layer1"
     transform="translate(385.85647,-136.08408)">
    <g
       id="g4187"
       transform="translate(568.48588,386.36653)">
      <circle
         id="circle4137"
         r="254"
         cy="254"
         cx="254"
         style="fill:#90dfaa" />
      <path
         id="path4139"
         d="m 382.4,402.8 -256.8,0 c -11.2,0 -20.4,-9.2 -20.4,-20.4 l 0,-256.8 c 0,-11.2 9.2,-20.4 20.4,-20.4 l 257.2,0 c 11.2,0 20.4,9.2 20.4,20.4 l 0,257.2 c -0.4,11.2 -9.2,20 -20.8,20 z"
         style="fill:#ffffff"
         inkscape:connector-curvature="0" />
      <rect
         id="rect4141"
         height="177.60001"
         width="177.60001"
         style="fill:#e6e9ee"
         y="165.2"
         x="165.2" />
      <g
         id="g4143">
        <path
           id="path4145"
           d="m 294.4,276.8 -10.4,0 0,-4 -6.8,0 0,35.2 6.8,0 0,-4 10.4,0 c 7.6,0 13.6,-6 13.6,-13.6 0,-7.6 -6,-13.6 -13.6,-13.6 z"
           style="fill:#324a5e"
           inkscape:connector-curvature="0" />
        <path
           id="path4147"
           d="m 223.6,276.8 -10.4,0 c -7.6,0 -13.6,6 -13.6,13.6 0,7.6 6,13.6 13.6,13.6 l 10.4,0 0,4 6.8,0 0,-35.2 -6.8,0 0,4 z"
           style="fill:#324a5e"
           inkscape:connector-curvature="0" />
        <path
           id="path4149"
           d="m 259.2,209.6 0,-9.6 -14,0 0,9.6 c -7.2,2.8 -12,9.6 -12,17.6 0,8 4.8,14.8 12,17.6 l 0,9.6 14,0 0,-9.6 c 7.2,-2.8 12,-9.6 12,-17.6 0,-8 -5.2,-14.8 -12,-17.6 z"
           style="fill:#324a5e"
           inkscape:connector-curvature="0" />
      </g>
      <g
         id="g4151" />
      <g
         id="g4153" />
      <g
         id="g4155" />
      <g
         id="g4157" />
      <g
         id="g4159" />
      <g
         id="g4161" />
      <g
         id="g4163" />
      <g
         id="g4165" />
      <g
         id="g4167" />
      <g
         id="g4169" />
      <g
         id="g4171" />
      <g
         id="g4173" />
      <g
         id="g4175" />
      <g
         id="g4177" />
      <g
         id="g4179" />
    </g>
    <g
       id="g4268"
       transform="translate(-380.38725,100.77408)">
      <path
         id="path4212"
         d="M 0,361.931 0,79.448 C 0,54.731 19.421,35.31 44.138,35.31 l 423.724,0 C 492.579,35.31 512,54.731 512,79.448 l 0,282.483 c 0,24.717 -19.421,44.138 -44.138,44.138 l -423.724,0 C 19.421,406.069 0,386.648 0,361.931"
         style="fill:#e8edee"
         inkscape:connector-curvature="0" />
      <path
         id="path4214"
         d="m 57.379,70.621 397.241,0 c 12.359,0 22.069,9.71 22.069,22.069 l 0,256 c 0,12.359 -9.71,22.069 -22.069,22.069 l -397.241,0 c -12.359,0 -22.069,-9.71 -22.069,-22.069 l 0,-256 c 0,-12.359 9.711,-22.069 22.069,-22.069"
         style="fill:#cbd4d8"
         inkscape:connector-curvature="0" />
      <path
         id="path4216"
         d="m 167.724,143.007 0,24.717 -35.31,0 0,-24.717 c -35.31,7.945 -61.793,39.724 -61.793,77.683 0,37.959 26.483,69.738 61.793,77.683 l 0,-24.717 35.31,0 0,24.717 c 35.31,-7.945 61.793,-39.724 61.793,-77.683 0,-37.959 -26.483,-69.738 -61.793,-77.683"
         style="fill:#e8edee"
         inkscape:connector-curvature="0" />
      <path
         id="path4218"
         d="m 441.379,220.69 c 0,-44.138 -35.31,-79.448 -79.448,-79.448 -44.138,0 -79.448,35.31 -79.448,79.448 0,44.138 35.31,79.448 79.448,79.448 44.138,0 79.448,-35.31 79.448,-79.448"
         style="fill:#546a79"
         inkscape:connector-curvature="0" />
      <path
         id="path4220"
         d="m 370.759,229.517 -17.655,0 c -5.297,0 -8.828,-3.531 -8.828,-8.828 0,-5.297 3.531,-8.828 8.828,-8.828 l 17.655,0 c 5.297,0 8.828,3.531 8.828,8.828 0,5.297 -3.532,8.828 -8.828,8.828 z"
         inkscape:connector-curvature="0" />
      <path
         id="path4222"
         d="m 321.324,288.662 c 11.476,7.062 25.6,11.476 40.607,11.476 15.007,0 29.131,-4.414 40.607,-11.476 -7.062,-45.021 -7.062,-90.924 0,-135.945 -11.476,-7.062 -25.6,-11.476 -40.607,-11.476 -15.007,0 -29.131,4.414 -40.607,11.476 7.062,45.021 7.062,90.924 0,135.945"
         style="fill:#38454f"
         inkscape:connector-curvature="0" />
      <path
         id="path4224"
         d="m 494.345,476.69 c -2.648,0 -4.414,-0.883 -6.179,-2.648 -11.476,-11.476 -38.841,-12.359 -56.497,-6.179 -30.014,11.476 -62.676,-1.766 -73.269,-29.131 -3.531,-7.062 -5.297,-15.007 -5.297,-23.835 l 0,-167.725 c 0,-5.297 3.531,-8.828 8.828,-8.828 5.297,0 8.828,3.531 8.828,8.828 l 0,167.724 c 0,6.179 0.883,12.359 3.531,17.655 7.945,18.538 30.014,27.366 51.2,19.421 22.952,-8.828 58.262,-7.062 75.034,9.71 3.531,3.531 3.531,8.828 0,12.359 -1.765,1.766 -3.531,2.649 -6.179,2.649"
         style="fill:#546a79"
         inkscape:connector-curvature="0" />
      <g
         id="g4226">
        <path
           id="path4228"
           d="m 141.241,220.69 c 0,-9.71 -7.945,-17.655 -17.655,-17.655 -9.71,0 -17.655,7.945 -17.655,17.655 0,9.71 7.945,17.655 17.655,17.655 9.71,0 17.655,-7.945 17.655,-17.655"
           style="fill:#38454f"
           inkscape:connector-curvature="0" />
        <path
           id="path4230"
           d="m 194.207,220.69 c 0,-9.71 -7.945,-17.655 -17.655,-17.655 -9.71,0 -17.655,7.945 -17.655,17.655 0,9.71 7.945,17.655 17.655,17.655 9.71,0 17.655,-7.945 17.655,-17.655"
           style="fill:#38454f"
           inkscape:connector-curvature="0" />
      </g>
      <g
         id="g4232" />
      <g
         id="g4234" />
      <g
         id="g4236" />
      <g
         id="g4238" />
      <g
         id="g4240" />
      <g
         id="g4242" />
      <g
         id="g4244" />
      <g
         id="g4246" />
      <g
         id="g4248" />
      <g
         id="g4250" />
      <g
         id="g4252" />
      <g
         id="g4254" />
      <g
         id="g4256" />
      <g
         id="g4258" />
      <g
         id="g4260" />
    </g>
    <g
       id="g4513"
       transform="translate(-385.85647,716.19836)">
      <path
         id="path4455"
         d="M 0,361.931 0,79.448 C 0,54.731 19.421,35.31 44.138,35.31 l 423.724,0 C 492.579,35.31 512,54.731 512,79.448 l 0,282.483 c 0,24.717 -19.421,44.138 -44.138,44.138 l -423.724,0 C 19.421,406.069 0,386.648 0,361.931"
         style="fill:#e8edee"
         inkscape:connector-curvature="0" />
      <path
         id="path4457"
         d="m 57.379,70.621 397.241,0 c 12.359,0 22.069,9.71 22.069,22.069 l 0,256 c 0,12.359 -9.71,22.069 -22.069,22.069 l -397.241,0 c -12.359,0 -22.069,-9.71 -22.069,-22.069 l 0,-256 c 0,-12.359 9.711,-22.069 22.069,-22.069"
         style="fill:#cbd4d8"
         inkscape:connector-curvature="0" />
      <path
         id="path4459"
         d="m 70.621,300.138 158.897,0 0,-158.897 -158.897,0 0,158.897 z"
         style="fill:#e8edee"
         inkscape:connector-curvature="0" />
      <g
         id="g4461">
        <path
           id="path4463"
           d="m 414.897,300.138 -105.931,0 c -14.124,0 -26.483,-11.476 -26.483,-26.483 l 0,-69.738 c 0,-11.476 4.414,-22.952 13.241,-30.897 l 22.069,-22.952 c 6.179,-6.179 14.124,-8.828 22.069,-8.828 l 45.021,0 c 7.945,0 15.89,3.531 22.069,8.828 l 22.069,22.069 c 7.945,7.945 13.241,19.421 13.241,30.897 l 0,70.621 c -0.883,15.007 -12.359,26.483 -27.365,26.483"
           style="fill:#38454f"
           inkscape:connector-curvature="0" />
        <path
           id="path4465"
           d="m 114.759,211.862 c -5.297,0 -8.828,-3.531 -8.828,-8.828 l 0,-26.483 c 0,-5.297 3.531,-8.828 8.828,-8.828 5.297,0 8.828,3.531 8.828,8.828 l 0,26.483 c -0.001,5.297 -3.532,8.828 -8.828,8.828"
           style="fill:#38454f"
           inkscape:connector-curvature="0" />
        <path
           id="path4467"
           d="m 185.379,211.862 c -5.297,0 -8.828,-3.531 -8.828,-8.828 l 0,-26.483 c 0,-5.297 3.531,-8.828 8.828,-8.828 5.297,0 8.828,3.531 8.828,8.828 l 0,26.483 c 0,5.297 -3.531,8.828 -8.828,8.828"
           style="fill:#38454f"
           inkscape:connector-curvature="0" />
        <path
           id="path4469"
           d="m 150.069,273.655 c -5.297,0 -8.828,-3.531 -8.828,-8.828 l 0,-17.655 c 0,-5.297 3.531,-8.828 8.828,-8.828 5.297,0 8.828,3.531 8.828,8.828 l 0,17.655 c 0,5.297 -3.531,8.828 -8.828,8.828"
           style="fill:#38454f"
           inkscape:connector-curvature="0" />
      </g>
      <g
         id="g4471">
        <path
           id="path4473"
           d="m 494.345,476.69 c -2.648,0 -4.414,-0.883 -6.179,-2.648 -11.476,-11.476 -38.841,-12.359 -56.497,-6.179 -30.014,11.476 -62.676,-1.766 -73.269,-29.131 -3.531,-7.062 -5.297,-15.007 -5.297,-23.835 l 0,-167.725 c 0,-5.297 3.531,-8.828 8.828,-8.828 5.297,0 8.828,3.531 8.828,8.828 l 0,167.724 c 0,6.179 0.883,12.359 3.531,17.655 7.945,18.538 30.014,27.366 51.2,19.421 22.952,-8.828 58.262,-7.062 75.034,9.71 3.531,3.531 3.531,8.828 0,12.359 -1.765,1.766 -3.531,2.649 -6.179,2.649"
           style="fill:#546a79"
           inkscape:connector-curvature="0" />
        <path
           id="path4475"
           d="m 370.759,229.517 -17.655,0 c -5.297,0 -8.828,-3.531 -8.828,-8.828 0,-5.297 3.531,-8.828 8.828,-8.828 l 17.655,0 c 5.297,0 8.828,3.531 8.828,8.828 0,5.297 -3.532,8.828 -8.828,8.828"
           style="fill:#546a79"
           inkscape:connector-curvature="0" />
      </g>
      <g
         id="g4477" />
      <g
         id="g4479" />
      <g
         id="g4481" />
      <g
         id="g4483" />
      <g
         id="g4485" />
      <g
         id="g4487" />
      <g
         id="g4489" />
      <g
         id="g4491" />
      <g
         id="g4493" />
      <g
         id="g4495" />
      <g
         id="g4497" />
      <g
         id="g4499" />
      <g
         id="g4501" />
      <g
         id="g4503" />
      <g
         id="g4505" />
    </g>
  </g>
</svg>
