<?xml version="1.0" encoding="UTF-8" standalone="no"?>
<!DOCTYPE svg PUBLIC "-//W3C//DTD SVG 1.1//EN"
 "http://www.w3.org/Graphics/SVG/1.1/DTD/svg11.dtd">
<!-- Generated by graphviz version 2.38.0 (20140413.2041)
 -->
<!-- Title: G Pages: 1 -->
<svg width="761pt" height="99pt"
 viewBox="0.00 0.00 761.00 99.00" xmlns="http://www.w3.org/2000/svg" xmlns:xlink="http://www.w3.org/1999/xlink">
<g id="graph0" class="graph" transform="scale(1 1) rotate(0) translate(4 95)">
<title>G</title>
<polygon fill="white" stroke="none" points="-4,4 -4,-95 757,-95 757,4 -4,4"/>
<!-- c -->
<g id="node1" class="node"><title>c</title>
<polygon fill="none" stroke="lightblue" stroke-dasharray="1,5" points="83,-63 0,-63 0,-27 83,-27 83,-63"/>
<text text-anchor="middle" x="41.5" y="-41.3" font-family="Times,serif" font-size="14.00">C语言教程</text>
</g>
<!-- java_basic -->
<g id="node2" class="node"><title>java_basic</title>
<polygon fill="lightblue" stroke="lightblue" points="217,-63 119,-63 119,-27 217,-27 217,-63"/>
<text text-anchor="middle" x="168" y="-41.3" font-family="Times,serif" font-size="14.00">Java基础教程</text>
</g>
<!-- c&#45;&gt;java_basic -->
<g id="edge1" class="edge"><title>c&#45;&gt;java_basic</title>
<path fill="none" stroke="black" d="M83.266,-45C91.4214,-45 100.138,-45 108.751,-45"/>
<polygon fill="black" stroke="black" points="108.776,-48.5001 118.776,-45 108.776,-41.5001 108.776,-48.5001"/>
</g>
<!-- java_advanced -->
<g id="node3" class="node"><title>java_advanced</title>
<polygon fill="lightblue" stroke="lightblue" points="361.5,-90 263.5,-90 263.5,-54 361.5,-54 361.5,-90"/>
<text text-anchor="middle" x="312.5" y="-68.3" font-family="Times,serif" font-size="14.00">Java进阶教程</text>
</g>
<!-- java_basic&#45;&gt;java_advanced -->
<g id="edge2" class="edge"><title>java_basic&#45;&gt;java_advanced</title>
<path fill="none" stroke="black" d="M217.244,-54.141C228.851,-56.3401 241.37,-58.7122 253.374,-60.9867"/>
<polygon fill="black" stroke="black" points="252.829,-64.4456 263.306,-62.8684 254.132,-57.5679 252.829,-64.4456"/>
</g>
<!-- android -->
<g id="node7" class="node"><title>android</title>
<polygon fill="lightblue" stroke="lightblue" points="372,-36 253,-36 253,-0 372,-0 372,-36"/>
<text text-anchor="middle" x="312.5" y="-14.3" font-family="Times,serif" font-size="14.00">Android实战教程</text>
</g>
<!-- java_basic&#45;&gt;android -->
<g id="edge6" class="edge"><title>java_basic&#45;&gt;android</title>
<path fill="none" stroke="black" d="M217.244,-35.859C225.485,-34.2976 234.186,-32.649 242.836,-31.0101"/>
<polygon fill="black" stroke="black" points="243.762,-34.3969 252.936,-29.0964 242.459,-27.5193 243.762,-34.3969"/>
</g>
<!-- jsf -->
<g id="node4" class="node"><title>jsf</title>
<polygon fill="lightblue" stroke="lightblue" points="524,-91 408,-91 408,-53 524,-53 524,-91"/>
<text text-anchor="middle" x="466" y="-75.8" font-family="Times,serif" font-size="14.00">JSF &amp; Primefaces</text>
<text text-anchor="middle" x="466" y="-60.8" font-family="Times,serif" font-size="14.00">实战教程</text>
</g>
<!-- java_advanced&#45;&gt;jsf -->
<g id="edge3" class="edge"><title>java_advanced&#45;&gt;jsf</title>
<path fill="none" stroke="black" d="M361.852,-72C373.286,-72 385.681,-72 397.783,-72"/>
<polygon fill="black" stroke="black" points="397.852,-75.5001 407.852,-72 397.852,-68.5001 397.852,-75.5001"/>
</g>
<!-- cdi -->
<g id="node5" class="node"><title>cdi</title>
<polygon fill="lightblue" stroke="lightblue" points="643,-91 560,-91 560,-53 643,-53 643,-91"/>
<text text-anchor="middle" x="601.5" y="-75.8" font-family="Times,serif" font-size="14.00">企业级Java</text>
<text text-anchor="middle" x="601.5" y="-60.8" font-family="Times,serif" font-size="14.00">实战教程</text>
</g>
<!-- jsf&#45;&gt;cdi -->
<g id="edge4" class="edge"><title>jsf&#45;&gt;cdi</title>
<path fill="none" stroke="black" d="M524.003,-72C532.568,-72 541.352,-72 549.775,-72"/>
<polygon fill="black" stroke="black" points="549.83,-75.5001 559.83,-72 549.829,-68.5001 549.83,-75.5001"/>
</g>
<!-- deltaspike -->
<g id="node6" class="node"><title>deltaspike</title>
<polygon fill="lightblue" stroke="lightblue" points="753,-91 679,-91 679,-53 753,-53 753,-91"/>
<text text-anchor="middle" x="716" y="-75.8" font-family="Times,serif" font-size="14.00">Deltaspike</text>
<text text-anchor="middle" x="716" y="-60.8" font-family="Times,serif" font-size="14.00">实战教程</text>
</g>
<!-- cdi&#45;&gt;deltaspike -->
<g id="edge5" class="edge"><title>cdi&#45;&gt;deltaspike</title>
<path fill="none" stroke="black" d="M643.115,-72C651.438,-72 660.256,-72 668.76,-72"/>
<polygon fill="black" stroke="black" points="668.921,-75.5001 678.921,-72 668.921,-68.5001 668.921,-75.5001"/>
</g>
</g>
</svg>
