<?xml version="1.0" encoding="UTF-8" standalone="no"?>
<!DOCTYPE svg PUBLIC "-//W3C//DTD SVG 1.1//EN"
 "http://www.w3.org/Graphics/SVG/1.1/DTD/svg11.dtd">
<!-- Generated by graphviz version 2.38.0 (20140413.2041)
 -->
<!-- Title: G Pages: 1 -->
<svg width="728pt" height="100pt"
 viewBox="0.00 0.00 728.00 100.00" xmlns="http://www.w3.org/2000/svg" xmlns:xlink="http://www.w3.org/1999/xlink">
<g id="graph0" class="graph" transform="scale(1 1) rotate(0) translate(4 96)">
<title>G</title>
<polygon fill="white" stroke="none" points="-4,4 -4,-96 724,-96 724,4 -4,4"/>
<!-- c -->
<g id="node1" class="node"><title>c</title>
<polygon fill="none" stroke="lightblue" stroke-dasharray="1,5" points="74,-64 0,-64 0,-26 74,-26 74,-64"/>
<text text-anchor="middle" x="37" y="-48.8" font-family="Times,serif" font-size="14.00">C/C++</text>
<text text-anchor="middle" x="37" y="-33.8" font-family="Times,serif" font-size="14.00">语言教程</text>
</g>
<!-- java_basic -->
<g id="node2" class="node"><title>java_basic</title>
<polygon fill="orange" stroke="orange" points="184,-64 110,-64 110,-26 184,-26 184,-64"/>
<text text-anchor="middle" x="147" y="-48.8" font-family="Times,serif" font-size="14.00">Java</text>
<text text-anchor="middle" x="147" y="-33.8" font-family="Times,serif" font-size="14.00">基础教程</text>
</g>
<!-- c&#45;&gt;java_basic -->
<g id="edge1" class="edge"><title>c&#45;&gt;java_basic</title>
<path fill="none" stroke="black" d="M74.2629,-45C82.3661,-45 91.0689,-45 99.5209,-45"/>
<polygon fill="black" stroke="black" points="99.649,-48.5001 109.649,-45 99.649,-41.5001 99.649,-48.5001"/>
</g>
<!-- java_advanced -->
<g id="node3" class="node"><title>java_advanced</title>
<polygon fill="lightblue" stroke="lightblue" points="316.5,-92 242.5,-92 242.5,-54 316.5,-54 316.5,-92"/>
<text text-anchor="middle" x="279.5" y="-76.8" font-family="Times,serif" font-size="14.00">Java</text>
<text text-anchor="middle" x="279.5" y="-61.8" font-family="Times,serif" font-size="14.00">进阶教程</text>
</g>
<!-- java_basic&#45;&gt;java_advanced -->
<g id="edge2" class="edge"><title>java_basic&#45;&gt;java_advanced</title>
<path fill="none" stroke="black" d="M184.005,-52.7252C198.858,-55.9121 216.26,-59.6459 232.055,-63.0348"/>
<polygon fill="black" stroke="black" points="231.648,-66.527 242.159,-65.2028 233.116,-59.6827 231.648,-66.527"/>
</g>
<!-- android -->
<g id="node7" class="node"><title>android</title>
<polygon fill="lightblue" stroke="lightblue" points="339,-36 220,-36 220,-0 339,-0 339,-36"/>
<text text-anchor="middle" x="279.5" y="-14.3" font-family="Times,serif" font-size="14.00">Android实战教程</text>
</g>
<!-- java_basic&#45;&gt;android -->
<g id="edge6" class="edge"><title>java_basic&#45;&gt;android</title>
<path fill="none" stroke="black" d="M184.005,-37.5507C192.008,-35.8949 200.751,-34.086 209.584,-32.2585"/>
<polygon fill="black" stroke="black" points="210.477,-35.648 219.56,-30.1945 209.058,-28.7932 210.477,-35.648"/>
</g>
<!-- jsf -->
<g id="node4" class="node"><title>jsf</title>
<polygon fill="lightblue" stroke="lightblue" points="491,-92 375,-92 375,-54 491,-54 491,-92"/>
<text text-anchor="middle" x="433" y="-76.8" font-family="Times,serif" font-size="14.00">JSF &amp; Primefaces</text>
<text text-anchor="middle" x="433" y="-61.8" font-family="Times,serif" font-size="14.00">实战教程</text>
</g>
<!-- java_advanced&#45;&gt;jsf -->
<g id="edge3" class="edge"><title>java_advanced&#45;&gt;jsf</title>
<path fill="none" stroke="black" d="M316.788,-73C331.142,-73 348.118,-73 364.565,-73"/>
<polygon fill="black" stroke="black" points="364.709,-76.5001 374.709,-73 364.709,-69.5001 364.709,-76.5001"/>
</g>
<!-- cdi -->
<g id="node5" class="node"><title>cdi</title>
<polygon fill="lightblue" stroke="lightblue" points="610,-92 527,-92 527,-54 610,-54 610,-92"/>
<text text-anchor="middle" x="568.5" y="-76.8" font-family="Times,serif" font-size="14.00">企业级Java</text>
<text text-anchor="middle" x="568.5" y="-61.8" font-family="Times,serif" font-size="14.00">实战教程</text>
</g>
<!-- jsf&#45;&gt;cdi -->
<g id="edge4" class="edge"><title>jsf&#45;&gt;cdi</title>
<path fill="none" stroke="black" d="M491.003,-73C499.568,-73 508.352,-73 516.775,-73"/>
<polygon fill="black" stroke="black" points="516.83,-76.5001 526.83,-73 516.829,-69.5001 516.83,-76.5001"/>
</g>
<!-- deltaspike -->
<g id="node6" class="node"><title>deltaspike</title>
<polygon fill="lightblue" stroke="lightblue" points="720,-92 646,-92 646,-54 720,-54 720,-92"/>
<text text-anchor="middle" x="683" y="-76.8" font-family="Times,serif" font-size="14.00">Deltaspike</text>
<text text-anchor="middle" x="683" y="-61.8" font-family="Times,serif" font-size="14.00">实战教程</text>
</g>
<!-- cdi&#45;&gt;deltaspike -->
<g id="edge5" class="edge"><title>cdi&#45;&gt;deltaspike</title>
<path fill="none" stroke="black" d="M610.115,-73C618.438,-73 627.256,-73 635.76,-73"/>
<polygon fill="black" stroke="black" points="635.921,-76.5001 645.921,-73 635.921,-69.5001 635.921,-76.5001"/>
</g>
</g>
</svg>
